<?xml version="1.0" encoding="utf-8"?>
<!-- Generator: Adobe Illustrator 22.1.0, SVG Export Plug-In . SVG Version: 6.00 Build 0)  -->
<svg version="1.1" id="Layer_1" xmlns="http://www.w3.org/2000/svg" xmlns:xlink="http://www.w3.org/1999/xlink" x="0px" y="0px"
	 viewBox="0 0 28 28" style="enable-background:new 0 0 28 28;" xml:space="preserve">
<style type="text/css">
	.st0{fill:none;stroke:#3E6480;stroke-width:2;stroke-miterlimit:10;}
	.st1{fill:#3F6480;}
	.st2{fill:#FFECCE;}
</style>
<path class="st0" d="M23.5,27H4.5C2.6,27,1,25.4,1,23.5V4.5C1,2.6,2.6,1,4.5,1h19.1C25.4,1,27,2.6,27,4.5v19.1
	C27,25.4,25.4,27,23.5,27z"/>
<g>
	<g id="ci2SK9.tif">
		<g>
			<path class="st1" d="M17.8,21.8c-3.7,0-7.5,0-11.2,0c-0.3-0.1-0.4-0.4-0.4-0.7c0-2.3,0-4.6,0-6.9c0-0.1,0-0.2,0-0.4
				c-0.3,0.1-0.5,0.3-0.7,0.3c-0.2,0.1-0.4,0-0.6,0c0-0.2-0.1-0.5,0-0.6c0.4-0.9,0.9-1.8,1.3-2.7c0.1-0.1,0.2-0.2,0.3-0.3
				c1.2-0.9,2.4-1.9,3.6-2.8c0.1-0.1,0.3-0.2,0.5-0.2c0.9,0.2,1.5-0.2,2-0.9c0.2-0.2,0.4-0.2,0.7,0c0.2,0.2,0.3,0.3,0.5,0.5
				c0.5-0.4,1-0.8,1.4-1.2c0.3-0.3,0.5-0.3,0.8,0c0.4,0.4,0.8,0.9,1.3,1.3c0.1,0.1,0.3,0.2,0.5,0.2c1,0,1.9,0,2.9,0
				c0.3,0,0.4,0.1,0.6,0.3c0.2,0.3,0.4,0.7,0.6,1c0.5,0.9,1.1,1.7,1.6,2.6c0,0.1,0,0.3,0,0.4c-0.7,0.7-1.4,1.4-2,2
				c-0.1,0.1-0.1,0.3-0.1,0.4c0,1,0,2,0,3c0,0.2-0.1,0.5-0.3,0.7c-0.8,1.1-1.7,2.2-2.6,3.2C18.2,21.5,18,21.6,17.8,21.8z M17.4,11.4
				c-3.5,0-6.9,0-10.3,0c0,3.2,0,6.4,0,9.6c3.5,0,6.9,0,10.3,0C17.4,17.8,17.4,14.6,17.4,11.4z M20.7,8.7c-0.8,0.8-1.6,1.6-2.4,2.4
				c0.6,0.9,1.2,1.9,1.7,2.9c0.8-0.8,1.6-1.6,2.4-2.4C21.9,10.6,21.3,9.7,20.7,8.7z M18.2,20.2c0.7-0.9,1.4-1.8,2.1-2.7
				c0-0.1,0.1-0.1,0.1-0.2c0-0.8,0-1.6,0-2.4c-0.5,0.2-0.6,0.1-0.9-0.3c-0.1-0.1-0.2-0.3-0.3-0.4c-0.3-0.6-0.7-1.1-1-1.7
				c0,0,0,0-0.1,0C18.2,15.1,18.2,17.6,18.2,20.2z M15.7,10.5c-0.9-1-1.8-2-2.6-2.9c-1,1-2,1.9-3,2.9C11.9,10.5,13.8,10.5,15.7,10.5
				z M18.4,9.8c-1-1-1.9-2-2.9-3c-0.4,0.4-0.8,0.7-1.3,1.1c0.8,0.9,1.5,1.8,2.4,2.6c0.2,0.2,0.7,0.1,1,0C18,10.3,18.2,10,18.4,9.8z
				 M7.9,10.5c0,0,0,0.1,0,0.1c0.3,0,0.8,0,1-0.1c0.7-0.6,1.4-1.4,2-2c-0.2,0-0.3,0-0.4,0C9.7,9.1,8.8,9.8,7.9,10.5z M19.7,8.4
				c-0.5,0-1,0-1.5,0c0.3,0.3,0.5,0.5,0.7,0.8C19.2,8.9,19.5,8.6,19.7,8.4z"/>
			<path class="st1" d="M12.2,12.9c0.5,0,1,0,1.5,0c0.3,0,0.5,0.2,0.5,0.4c0,0.2-0.2,0.3-0.5,0.3c-1,0-2,0-3,0
				c-0.3,0-0.5-0.1-0.5-0.4c0-0.3,0.2-0.3,0.5-0.3C11.2,12.9,11.7,12.9,12.2,12.9z"/>
		</g>
	</g>
	<polygon class="st2" points="13.1,7.6 10.1,10.5 15.7,10.5 	"/>
	<path class="st2" d="M15.6,6.8l-1.3,1.1l2.4,2.6c0,0,0.9,0.5,1.7-0.6L15.6,6.8z"/>
</g>
</svg>
