<?xml version="1.0" encoding="utf-8"?>
<!-- Generator: Adobe Illustrator 22.1.0, SVG Export Plug-In . SVG Version: 6.00 Build 0)  -->
<svg version="1.1" id="Layer_1" xmlns="http://www.w3.org/2000/svg" xmlns:xlink="http://www.w3.org/1999/xlink" x="0px" y="0px"
	 viewBox="0 0 42 42" style="enable-background:new 0 0 42 42;" xml:space="preserve">
<style type="text/css">
	.st0{fill:#EFF9FE;}
	.st1{fill:#3E6580;}
	.st2{fill:#FFECCE;}
</style>
<path class="st0" d="M21.1,33.4l0.5-0.6L21.1,33.4z"/>
<g>
	<g id="ci2SK9.tif">
		<g>
			<path class="st1" d="M27.1,34c-6.1,0-12.2,0-18.2,0c-0.5-0.2-0.6-0.6-0.6-1.1c0-3.7,0-7.4,0-11.1c0-0.2,0-0.4,0-0.7
				c-0.4,0.2-0.8,0.5-1.2,0.6c-0.3,0.1-0.7,0-1,0c0-0.3-0.1-0.7,0-1c0.7-1.5,1.4-2.9,2.2-4.4c0.1-0.2,0.3-0.4,0.4-0.5
				c2-1.5,3.9-3,5.9-4.5c0.2-0.2,0.5-0.3,0.7-0.3c1.4,0.2,2.5-0.3,3.3-1.4c0.3-0.4,0.7-0.4,1.1,0c0.3,0.3,0.5,0.5,0.8,0.8
				c0.8-0.7,1.5-1.3,2.3-2c0.5-0.4,0.8-0.4,1.2,0c0.7,0.7,1.4,1.5,2.1,2.2c0.2,0.2,0.5,0.3,0.8,0.3c1.5,0,3.1,0,4.6,0
				c0.4,0,0.7,0.2,0.9,0.5c0.3,0.5,0.6,1.1,1,1.6c0.9,1.4,1.7,2.8,2.6,4.2c0,0.2,0,0.5,0,0.7c-1.1,1.1-2.2,2.2-3.3,3.3
				c-0.2,0.2-0.2,0.4-0.2,0.7c0,1.6,0,3.2,0,4.9c0,0.4-0.2,0.8-0.4,1.2c-1.4,1.8-2.8,3.5-4.2,5.2C27.6,33.5,27.3,33.7,27.1,34z
				 M26.3,17.1c-5.6,0-11.2,0-16.8,0c0,5.2,0,10.4,0,15.6c5.6,0,11.2,0,16.8,0C26.3,27.4,26.3,22.3,26.3,17.1z M31.7,12.7
				c-1.3,1.3-2.6,2.6-3.9,3.9c0.9,1.5,1.9,3.1,2.8,4.7c1.3-1.3,2.6-2.6,3.9-3.9C33.6,15.9,32.7,14.3,31.7,12.7z M27.7,31.4
				c1.2-1.5,2.3-2.9,3.4-4.3c0.1-0.1,0.1-0.2,0.1-0.3c0-1.3,0-2.6,0-3.9c-0.8,0.3-1,0.2-1.4-0.5c-0.1-0.2-0.3-0.5-0.4-0.7
				c-0.5-0.9-1.1-1.8-1.6-2.7c0,0-0.1,0-0.1,0C27.7,23.1,27.7,27.2,27.7,31.4z M23.5,15.7c-1.5-1.7-2.9-3.3-4.2-4.7
				c-1.6,1.6-3.2,3.1-4.9,4.7C17.5,15.7,20.4,15.7,23.5,15.7z M28,14.6c-1.6-1.7-3.1-3.3-4.6-4.9c-0.7,0.6-1.3,1.1-2,1.7
				c1.3,1.4,2.5,2.9,3.8,4.2c0.3,0.3,1.1,0.2,1.7,0C27.3,15.4,27.6,14.9,28,14.6z M11,15.6c0,0.1,0,0.1,0,0.2
				c0.5-0.1,1.3,0.1,1.6-0.2c1.2-1,2.2-2.2,3.3-3.3c-0.3-0.1-0.5,0-0.7,0.1C13.8,13.5,12.4,14.6,11,15.6z M30.1,12.2
				c-0.8,0-1.6,0-2.5,0c0.4,0.5,0.8,0.9,1.2,1.3C29.3,13.1,29.7,12.7,30.1,12.2z"/>
			<path class="st1" d="M18,19.6c0.8,0,1.6,0,2.4,0c0.4,0,0.8,0.3,0.7,0.6c-0.1,0.4-0.4,0.5-0.8,0.5c-1.6,0-3.3,0-4.9,0
				c-0.4,0-0.8-0.1-0.8-0.6c0-0.5,0.4-0.6,0.8-0.6C16.3,19.6,17.2,19.6,18,19.6z"/>
		</g>
	</g>
	<polygon class="st2" points="19.3,11 14.5,15.7 23.5,15.7 	"/>
	<path class="st2" d="M23.4,9.7l-2,1.7l3.8,4.2c0,0,1.4,0.8,2.8-1L23.4,9.7z"/>
</g>
</svg>
