<?xml version="1.0" encoding="utf-8"?>
<!-- Generator: Adobe Illustrator 22.1.0, SVG Export Plug-In . SVG Version: 6.00 Build 0)  -->
<svg version="1.1" id="Layer_1" xmlns="http://www.w3.org/2000/svg" xmlns:xlink="http://www.w3.org/1999/xlink" x="0px" y="0px"
	 viewBox="0 0 792 612" style="enable-background:new 0 0 792 612;" xml:space="preserve">
<style type="text/css">
	.st0{fill:none;stroke:#3E6480;stroke-width:3;stroke-miterlimit:10;}
	.st1{fill:#3F6480;}
	.st2{fill:#FFECCE;}
</style>
<path class="st0" d="M414.5,327.9h-36.1c-1.9,0-3.4-1.5-3.4-3.4v-36.1c0-1.9,1.5-3.4,3.4-3.4h36.1c1.9,0,3.4,1.5,3.4,3.4v36.1
	C417.9,326.3,416.3,327.9,414.5,327.9z"/>
<g>
	<g id="ci2SK9.tif">
		<g>
			<path class="st1" d="M403,319.3c-6.2,0-12.4,0-18.7,0c-0.5-0.2-0.6-0.6-0.6-1.1c0-3.8,0-7.6,0-11.4c0-0.2,0-0.4,0-0.7
				c-0.4,0.2-0.8,0.5-1.2,0.6c-0.3,0.1-0.7,0-1,0c0-0.4-0.1-0.8,0-1.1c0.7-1.5,1.5-3,2.2-4.5c0.1-0.2,0.3-0.4,0.4-0.6
				c2-1.6,4-3.1,6.1-4.6c0.2-0.2,0.5-0.3,0.8-0.3c1.5,0.3,2.5-0.3,3.4-1.5c0.3-0.4,0.7-0.4,1.1,0c0.3,0.3,0.5,0.6,0.8,0.9
				c0.8-0.7,1.6-1.3,2.4-2c0.5-0.5,0.8-0.5,1.3,0c0.7,0.7,1.4,1.5,2.1,2.2c0.2,0.2,0.5,0.3,0.8,0.3c1.6,0,3.2,0,4.8,0
				c0.4,0,0.7,0.2,0.9,0.5c0.3,0.5,0.6,1.1,1,1.6c0.9,1.4,1.8,2.9,2.7,4.3c0,0.2,0,0.5,0,0.7c-1.1,1.1-2.3,2.2-3.4,3.4
				c-0.2,0.2-0.2,0.5-0.2,0.7c0,1.7,0,3.3,0,5c0,0.4-0.2,0.9-0.4,1.2c-1.4,1.8-2.8,3.6-4.3,5.3C403.6,318.8,403.3,319.1,403,319.3z
				 M402.3,302c-5.8,0-11.5,0-17.2,0c0,5.3,0,10.6,0,15.9c5.7,0,11.4,0,17.2,0C402.3,312.6,402.3,307.4,402.3,302z M407.8,297.6
				c-1.3,1.3-2.6,2.6-4,4c0.9,1.6,1.9,3.2,2.9,4.8c1.3-1.3,2.6-2.6,4-4C409.7,300.8,408.7,299.2,407.8,297.6z M403.6,316.7
				c1.2-1.5,2.4-3,3.5-4.4c0.1-0.1,0.1-0.2,0.1-0.3c0-1.3,0-2.6,0-4c-0.8,0.3-1,0.2-1.4-0.5c-0.1-0.2-0.3-0.5-0.4-0.7
				c-0.6-0.9-1.1-1.8-1.7-2.7c0,0-0.1,0-0.1,0C403.6,308.2,403.6,312.4,403.6,316.7z M399.4,300.7c-1.5-1.7-3-3.3-4.3-4.8
				c-1.7,1.6-3.3,3.2-5,4.8C393.2,300.7,396.2,300.7,399.4,300.7z M404,299.5c-1.6-1.7-3.2-3.4-4.7-5c-0.7,0.6-1.4,1.2-2.1,1.8
				c1.3,1.5,2.6,3,3.9,4.3c0.3,0.3,1.2,0.2,1.7,0C403.2,300.3,403.5,299.9,404,299.5z M386.6,300.6c0,0.1,0,0.1,0,0.2
				c0.6-0.1,1.3,0.1,1.6-0.2c1.2-1,2.3-2.2,3.4-3.4c-0.3-0.1-0.5,0-0.7,0.1C389.5,298.3,388,299.5,386.6,300.6z M406.1,297.1
				c-0.8,0-1.6,0-2.5,0c0.5,0.5,0.9,0.9,1.2,1.3C405.3,297.9,405.7,297.5,406.1,297.1z"/>
			<path class="st1" d="M393.7,304.6c0.8,0,1.7,0,2.5,0c0.5,0,0.8,0.3,0.8,0.6c-0.1,0.4-0.4,0.6-0.8,0.6c-1.7,0-3.4,0-5,0
				c-0.4,0-0.8-0.1-0.8-0.6c0-0.5,0.4-0.6,0.8-0.6C392,304.6,392.9,304.6,393.7,304.6z"/>
		</g>
	</g>
	<polygon class="st2" points="395.1,295.8 390.1,300.7 399.4,300.7 	"/>
	<path class="st2" d="M399.2,294.5l-2.1,1.8l3.9,4.3c0,0,1.4,0.9,2.9-1.1L399.2,294.5z"/>
</g>
</svg>
